<svg width="375" height="587" viewBox="0 0 375 587" fill="none" xmlns="http://www.w3.org/2000/svg">
<g opacity="0.32">
<mask id="path-1-inside-1_238_283" fill="white">
<path fill-rule="evenodd" clip-rule="evenodd" d="M329.01 12.8676C329.01 14.5244 330.353 15.8676 332.01 15.8676H341.121C342.778 15.8676 344.121 14.5244 344.121 12.8676V3.00001C344.121 1.34315 345.464 2.40916e-06 347.121 5.78111e-06L357.991 2.79025e-05C359.648 3.12744e-05 360.991 1.34318 360.991 3.00003V26.7766C360.991 28.4335 362.334 29.7766 363.991 29.7766H371.344C373.001 29.7766 374.344 31.1198 374.344 32.7767V584C374.344 585.657 373.001 587 371.344 587H3.34375C1.6869 587 0.34375 585.657 0.34375 584V32.7768C0.34375 31.1199 1.6869 29.7768 3.34375 29.7768H8.45456C10.1114 29.7768 11.4546 28.4336 11.4546 26.7768V23.2554V3.00003C11.4546 1.34318 12.7977 3.38627e-05 14.4546 3.36836e-05L326.01 0C327.667 -1.79129e-07 329.01 1.34315 329.01 3V12.8676Z"/>
</mask>
<path fill-rule="evenodd" clip-rule="evenodd" d="M329.01 12.8676C329.01 14.5244 330.353 15.8676 332.01 15.8676H341.121C342.778 15.8676 344.121 14.5244 344.121 12.8676V3.00001C344.121 1.34315 345.464 2.40916e-06 347.121 5.78111e-06L357.991 2.79025e-05C359.648 3.12744e-05 360.991 1.34318 360.991 3.00003V26.7766C360.991 28.4335 362.334 29.7766 363.991 29.7766H371.344C373.001 29.7766 374.344 31.1198 374.344 32.7767V584C374.344 585.657 373.001 587 371.344 587H3.34375C1.6869 587 0.34375 585.657 0.34375 584V32.7768C0.34375 31.1199 1.6869 29.7768 3.34375 29.7768H8.45456C10.1114 29.7768 11.4546 28.4336 11.4546 26.7768V23.2554V3.00003C11.4546 1.34318 12.7977 3.38627e-05 14.4546 3.36836e-05L326.01 0C327.667 -1.79129e-07 329.01 1.34315 329.01 3V12.8676Z" fill="#000D6B"/>
<path d="M326.01 0V1V0ZM14.4546 3.36836e-05V-0.999966V3.36836e-05ZM341.121 14.8676H332.01V16.8676H341.121V14.8676ZM343.121 3.00001V12.8676H345.121V3.00001H343.121ZM357.991 -0.999972L347.121 -0.999994V1.00001L357.991 1.00003V-0.999972ZM361.991 26.7766V3.00003H359.991V26.7766H361.991ZM371.344 28.7766H363.991V30.7766H371.344V28.7766ZM375.344 584V32.7767H373.344V584H375.344ZM3.34375 588H371.344V586H3.34375V588ZM-0.65625 32.7768V584H1.34375V32.7768H-0.65625ZM8.45456 28.7768H3.34375V30.7768H8.45456V28.7768ZM10.4546 23.2554V26.7768H12.4546V23.2554H10.4546ZM10.4546 3.00003V23.2554H12.4546V3.00003H10.4546ZM326.01 -1L14.4546 -0.999966V1.00003L326.01 1V-1ZM330.01 12.8676V3H328.01V12.8676H330.01ZM326.01 1C327.115 1 328.01 1.89543 328.01 3H330.01C330.01 0.790862 328.219 -1 326.01 -1V1ZM8.45456 30.7768C10.6637 30.7768 12.4546 28.9859 12.4546 26.7768H10.4546C10.4546 27.8813 9.55913 28.7768 8.45456 28.7768V30.7768ZM1.34375 32.7768C1.34375 31.6722 2.23918 30.7768 3.34375 30.7768V28.7768C1.13461 28.7768 -0.65625 30.5676 -0.65625 32.7768H1.34375ZM3.34375 586C2.23918 586 1.34375 585.105 1.34375 584H-0.65625C-0.65625 586.209 1.13461 588 3.34375 588V586ZM373.344 584C373.344 585.105 372.448 586 371.344 586V588C373.553 588 375.344 586.209 375.344 584H373.344ZM371.344 30.7766C372.448 30.7766 373.344 31.6721 373.344 32.7767H375.344C375.344 30.5675 373.553 28.7766 371.344 28.7766V30.7766ZM359.991 26.7766C359.991 28.9858 361.782 30.7766 363.991 30.7766V28.7766C362.886 28.7766 361.991 27.8812 361.991 26.7766H359.991ZM357.991 1.00003C359.095 1.00003 359.991 1.89546 359.991 3.00003H361.991C361.991 0.790893 360.2 -0.999968 357.991 -0.999972V1.00003ZM345.121 3.00001C345.121 1.89543 346.017 1 347.121 1.00001V-0.999994C344.912 -0.999999 343.121 0.790865 343.121 3.00001H345.121ZM332.01 14.8676C330.906 14.8676 330.01 13.9722 330.01 12.8676H328.01C328.01 15.0767 329.801 16.8676 332.01 16.8676V14.8676ZM12.4546 3.00003C12.4546 1.89546 13.35 1.00003 14.4546 1.00003V-0.999966C12.2454 -0.999966 10.4546 0.790895 10.4546 3.00003H12.4546ZM341.121 16.8676C343.33 16.8676 345.121 15.0767 345.121 12.8676H343.121C343.121 13.9722 342.226 14.8676 341.121 14.8676V16.8676Z" fill="white" mask="url(#path-1-inside-1_238_283)"/>
</g>
</svg>
