<svg width="780" height="201" viewBox="0 0 780 201" fill="none" xmlns="http://www.w3.org/2000/svg">
<g opacity="0.32">
<mask id="path-1-inside-1_238_342" fill="white">
<path fill-rule="evenodd" clip-rule="evenodd" d="M777 201C778.657 201 780 199.657 780 198L780 3C780 1.34315 778.657 -5.87105e-08 777 -1.31134e-07L774.028 -2.61028e-07C772.372 -3.33451e-07 771.028 1.34315 771.028 3L771.028 5.10378C771.028 6.76064 769.685 8.10378 768.028 8.10378L742.891 8.10378C741.234 8.10378 739.891 6.76063 739.891 5.10378L739.891 3C739.891 1.34314 738.547 -1.81195e-06 736.891 -1.88437e-06L59.7253 -3.14842e-05C58.5179 -3.1537e-05 57.5391 0.978784 57.5391 2.18621C57.5391 3.39364 56.5602 4.37246 55.3528 4.37246L38.0635 4.37246C36.8561 4.37246 35.8773 3.39364 35.8773 2.18621C35.8773 0.978783 34.8985 -3.25694e-05 33.6911 -3.26222e-05L3 -3.39637e-05C1.34314 -3.40362e-05 -5.87108e-08 1.34311 -1.31134e-07 2.99997L-2.18089e-07 4.98926C-2.90512e-07 6.64611 1.34314 7.98926 3 7.98926L23.8477 7.98926C25.5045 7.98926 26.8477 9.3324 26.8477 10.9893L26.8477 13.093C26.8477 14.7499 25.5045 16.093 23.8477 16.093L3 16.093C1.34314 16.093 -7.62161e-07 17.4362 -8.34585e-07 19.093L-8.65486e-06 198C-8.72728e-06 199.657 1.34313 201 2.99999 201L16.1441 201C16.2365 201 16.3115 200.925 16.3115 200.833C16.3115 200.74 16.3864 200.665 16.4788 200.665L47.2819 200.665C47.3743 200.665 47.4492 200.74 47.4492 200.833C47.4492 200.925 47.5242 201 47.6166 201L69.6552 201C71.3121 201 72.6552 199.657 72.6552 198L72.6552 197.011C72.6552 195.354 71.3121 194.011 69.6552 194.011L48.2997 194.011C46.6429 194.011 45.2997 192.668 45.2997 191.011L45.2997 188.907C45.2997 187.25 46.6429 185.907 48.2997 185.907L73.4375 185.907C75.0944 185.907 76.4375 187.25 76.4375 188.907L76.4375 190.865C76.4375 192.522 77.7806 193.865 79.4375 193.865L100.793 193.865C102.45 193.865 103.793 195.209 103.793 196.865L103.793 197.7C103.793 199.338 105.12 200.665 106.758 200.665L109.555 200.665C109.648 200.665 109.723 200.74 109.723 200.833C109.723 200.925 109.798 201 109.89 201L660.289 201C661.946 201 663.289 199.657 663.289 198L663.289 196.522C663.289 194.865 664.632 193.522 666.289 193.522L691.427 193.522C693.084 193.522 694.427 194.865 694.427 196.522L694.427 198C694.427 199.657 695.77 201 697.427 201L737.703 201C739.36 201 740.703 199.657 740.703 198L740.703 196.865C740.703 195.209 742.046 193.865 743.703 193.865L768.841 193.865C770.498 193.865 771.841 195.209 771.841 196.865L771.841 198C771.841 199.657 773.184 201 774.841 201L777 201ZM680.617 1.31134e-07C678.96 5.87106e-08 677.617 1.34315 677.617 3L677.617 5.10378C677.617 6.76064 678.96 8.10378 680.617 8.10378L705.755 8.10378C707.412 8.10378 708.755 6.76064 708.755 5.10378L708.755 3C708.755 1.34315 707.412 1.30236e-06 705.755 1.22994e-06L680.617 1.31134e-07ZM742.891 172.151C741.234 172.151 739.891 173.494 739.891 175.151L739.891 177.255C739.891 178.912 741.234 180.255 742.891 180.255L768.028 180.255C769.685 180.255 771.028 178.912 771.028 177.255L771.028 175.151C771.028 173.494 769.685 172.151 768.028 172.151L742.891 172.151Z"/>
</mask>
<path fill-rule="evenodd" clip-rule="evenodd" d="M777 201C778.657 201 780 199.657 780 198L780 3C780 1.34315 778.657 -5.87105e-08 777 -1.31134e-07L774.028 -2.61028e-07C772.372 -3.33451e-07 771.028 1.34315 771.028 3L771.028 5.10378C771.028 6.76064 769.685 8.10378 768.028 8.10378L742.891 8.10378C741.234 8.10378 739.891 6.76063 739.891 5.10378L739.891 3C739.891 1.34314 738.547 -1.81195e-06 736.891 -1.88437e-06L59.7253 -3.14842e-05C58.5179 -3.1537e-05 57.5391 0.978784 57.5391 2.18621C57.5391 3.39364 56.5602 4.37246 55.3528 4.37246L38.0635 4.37246C36.8561 4.37246 35.8773 3.39364 35.8773 2.18621C35.8773 0.978783 34.8985 -3.25694e-05 33.6911 -3.26222e-05L3 -3.39637e-05C1.34314 -3.40362e-05 -5.87108e-08 1.34311 -1.31134e-07 2.99997L-2.18089e-07 4.98926C-2.90512e-07 6.64611 1.34314 7.98926 3 7.98926L23.8477 7.98926C25.5045 7.98926 26.8477 9.3324 26.8477 10.9893L26.8477 13.093C26.8477 14.7499 25.5045 16.093 23.8477 16.093L3 16.093C1.34314 16.093 -7.62161e-07 17.4362 -8.34585e-07 19.093L-8.65486e-06 198C-8.72728e-06 199.657 1.34313 201 2.99999 201L16.1441 201C16.2365 201 16.3115 200.925 16.3115 200.833C16.3115 200.74 16.3864 200.665 16.4788 200.665L47.2819 200.665C47.3743 200.665 47.4492 200.74 47.4492 200.833C47.4492 200.925 47.5242 201 47.6166 201L69.6552 201C71.3121 201 72.6552 199.657 72.6552 198L72.6552 197.011C72.6552 195.354 71.3121 194.011 69.6552 194.011L48.2997 194.011C46.6429 194.011 45.2997 192.668 45.2997 191.011L45.2997 188.907C45.2997 187.25 46.6429 185.907 48.2997 185.907L73.4375 185.907C75.0944 185.907 76.4375 187.25 76.4375 188.907L76.4375 190.865C76.4375 192.522 77.7806 193.865 79.4375 193.865L100.793 193.865C102.45 193.865 103.793 195.209 103.793 196.865L103.793 197.7C103.793 199.338 105.12 200.665 106.758 200.665L109.555 200.665C109.648 200.665 109.723 200.74 109.723 200.833C109.723 200.925 109.798 201 109.89 201L660.289 201C661.946 201 663.289 199.657 663.289 198L663.289 196.522C663.289 194.865 664.632 193.522 666.289 193.522L691.427 193.522C693.084 193.522 694.427 194.865 694.427 196.522L694.427 198C694.427 199.657 695.77 201 697.427 201L737.703 201C739.36 201 740.703 199.657 740.703 198L740.703 196.865C740.703 195.209 742.046 193.865 743.703 193.865L768.841 193.865C770.498 193.865 771.841 195.209 771.841 196.865L771.841 198C771.841 199.657 773.184 201 774.841 201L777 201ZM680.617 1.31134e-07C678.96 5.87106e-08 677.617 1.34315 677.617 3L677.617 5.10378C677.617 6.76064 678.96 8.10378 680.617 8.10378L705.755 8.10378C707.412 8.10378 708.755 6.76064 708.755 5.10378L708.755 3C708.755 1.34315 707.412 1.30236e-06 705.755 1.22994e-06L680.617 1.31134e-07ZM742.891 172.151C741.234 172.151 739.891 173.494 739.891 175.151L739.891 177.255C739.891 178.912 741.234 180.255 742.891 180.255L768.028 180.255C769.685 180.255 771.028 178.912 771.028 177.255L771.028 175.151C771.028 173.494 769.685 172.151 768.028 172.151L742.891 172.151Z" fill="#000D6B"/>
<path d="M680.617 8.10378L680.617 7.10378L680.617 8.10378ZM768.841 193.865L768.841 192.865L768.841 193.865ZM743.703 193.865L743.703 194.865L743.703 193.865ZM691.427 193.522L691.427 194.522L691.427 193.522ZM666.289 193.522L666.289 192.522L666.289 193.522ZM109.555 200.665L109.555 199.665L109.555 200.665ZM106.758 200.665L106.758 201.665L106.758 200.665ZM100.793 193.865L100.793 194.865L100.793 193.865ZM79.4375 193.865L79.4375 192.865L79.4375 193.865ZM73.4375 185.907L73.4375 184.907L73.4375 185.907ZM48.2997 185.907L48.2997 186.907L48.2997 185.907ZM48.2997 194.011L48.2997 195.011L48.2997 194.011ZM69.6552 194.011L69.6552 193.011L69.6552 194.011ZM47.2819 200.665L47.2819 199.665L47.2819 200.665ZM16.4788 200.665L16.4788 201.665L16.4788 200.665ZM3 16.093L3 15.093L3 16.093ZM768.028 8.10378L768.028 7.10378L768.028 8.10378ZM779 3L779 198L781 198L781 3L779 3ZM774.028 1L777 1L777 -1L774.028 -1L774.028 1ZM772.028 5.10378L772.028 3L770.028 3L770.028 5.10378L772.028 5.10378ZM742.891 9.10378L768.028 9.10378L768.028 7.10378L742.891 7.10378L742.891 9.10378ZM738.891 3L738.891 5.10378L740.891 5.10378L740.891 3L738.891 3ZM59.7253 0.999969L736.891 0.999998L736.891 -1L59.7253 -1.00003L59.7253 0.999969ZM38.0635 5.37246L55.3528 5.37246L55.3528 3.37246L38.0635 3.37246L38.0635 5.37246ZM3 0.999966L33.6911 0.999967L33.6911 -1.00003L3 -1.00003L3 0.999966ZM1 4.98926L1 2.99997L-1 2.99997L-1 4.98926L1 4.98926ZM23.8477 6.98926L3 6.98926L3 8.98926L23.8477 8.98926L23.8477 6.98926ZM27.8477 13.093L27.8477 10.9893L25.8477 10.9893L25.8477 13.093L27.8477 13.093ZM3 17.093L23.8477 17.093L23.8477 15.093L3 15.093L3 17.093ZM0.999991 198L0.999999 19.093L-1 19.093L-1.00001 198L0.999991 198ZM16.1441 200L2.99999 200L2.99999 202L16.1441 202L16.1441 200ZM47.2819 199.665L16.4788 199.665L16.4788 201.665L47.2819 201.665L47.2819 199.665ZM69.6552 200L47.6166 200L47.6166 202L69.6552 202L69.6552 200ZM71.6552 197.011L71.6552 198L73.6552 198L73.6552 197.011L71.6552 197.011ZM48.2997 195.011L69.6552 195.011L69.6552 193.011L48.2997 193.011L48.2997 195.011ZM44.2997 188.907L44.2997 191.011L46.2997 191.011L46.2997 188.907L44.2997 188.907ZM73.4375 184.907L48.2997 184.907L48.2997 186.907L73.4375 186.907L73.4375 184.907ZM77.4375 190.865L77.4375 188.907L75.4375 188.907L75.4375 190.865L77.4375 190.865ZM100.793 192.865L79.4375 192.865L79.4375 194.865L100.793 194.865L100.793 192.865ZM104.793 197.7L104.793 196.865L102.793 196.865L102.793 197.7L104.793 197.7ZM109.555 199.665L106.758 199.665L106.758 201.665L109.555 201.665L109.555 199.665ZM660.289 200L109.89 200L109.89 202L660.289 202L660.289 200ZM662.289 196.522L662.289 198L664.289 198L664.289 196.522L662.289 196.522ZM691.427 192.522L666.289 192.522L666.289 194.522L691.427 194.522L691.427 192.522ZM695.427 198L695.427 196.522L693.427 196.522L693.427 198L695.427 198ZM737.703 200L697.427 200L697.427 202L737.703 202L737.703 200ZM739.703 196.865L739.703 198L741.703 198L741.703 196.865L739.703 196.865ZM768.841 192.865L743.703 192.865L743.703 194.865L768.841 194.865L768.841 192.865ZM772.841 198L772.841 196.865L770.841 196.865L770.841 198L772.841 198ZM777 200L774.841 200L774.841 202L777 202L777 200ZM678.617 5.10378L678.617 3L676.617 3L676.617 5.10378L678.617 5.10378ZM705.755 7.10378L680.617 7.10378L680.617 9.10378L705.755 9.10378L705.755 7.10378ZM707.755 3L707.755 5.10378L709.755 5.10378L709.755 3L707.755 3ZM680.617 1L705.755 1L705.755 -0.999999L680.617 -1L680.617 1ZM740.891 177.255L740.891 175.151L738.891 175.151L738.891 177.255L740.891 177.255ZM768.028 179.255L742.891 179.255L742.891 181.255L768.028 181.255L768.028 179.255ZM770.028 175.151L770.028 177.255L772.028 177.255L772.028 175.151L770.028 175.151ZM742.891 173.151L768.028 173.151L768.028 171.151L742.891 171.151L742.891 173.151ZM772.028 175.151C772.028 172.942 770.238 171.151 768.028 171.151L768.028 173.151C769.133 173.151 770.028 174.047 770.028 175.151L772.028 175.151ZM768.028 181.255C770.238 181.255 772.028 179.464 772.028 177.255L770.028 177.255C770.028 178.359 769.133 179.255 768.028 179.255L768.028 181.255ZM740.891 175.151C740.891 174.047 741.786 173.151 742.891 173.151L742.891 171.151C740.681 171.151 738.891 172.942 738.891 175.151L740.891 175.151ZM738.891 177.255C738.891 179.464 740.681 181.255 742.891 181.255L742.891 179.255C741.786 179.255 740.891 178.359 740.891 177.255L738.891 177.255ZM709.755 3C709.755 0.790862 707.964 -0.999999 705.755 -0.999999L705.755 1C706.86 1 707.755 1.89543 707.755 3L709.755 3ZM705.755 9.10378C707.964 9.10378 709.755 7.31292 709.755 5.10378L707.755 5.10378C707.755 6.20835 706.86 7.10378 705.755 7.10378L705.755 9.10378ZM678.617 3C678.617 1.89543 679.513 1 680.617 1L680.617 -1C678.408 -1 676.617 0.790863 676.617 3L678.617 3ZM676.617 5.10378C676.617 7.31292 678.408 9.10378 680.617 9.10378L680.617 7.10378C679.513 7.10378 678.617 6.20835 678.617 5.10378L676.617 5.10378ZM770.841 198C770.841 200.209 772.632 202 774.841 202L774.841 200C773.736 200 772.841 199.105 772.841 198L770.841 198ZM768.841 194.865C769.945 194.865 770.841 195.761 770.841 196.865L772.841 196.865C772.841 194.656 771.05 192.865 768.841 192.865L768.841 194.865ZM741.703 196.865C741.703 195.761 742.599 194.865 743.703 194.865L743.703 192.865C741.494 192.865 739.703 194.656 739.703 196.865L741.703 196.865ZM737.703 202C739.912 202 741.703 200.209 741.703 198L739.703 198C739.703 199.105 738.808 200 737.703 200L737.703 202ZM693.427 198C693.427 200.209 695.218 202 697.427 202L697.427 200C696.322 200 695.427 199.105 695.427 198L693.427 198ZM691.427 194.522C692.531 194.522 693.427 195.417 693.427 196.522L695.427 196.522C695.427 194.313 693.636 192.522 691.427 192.522L691.427 194.522ZM664.289 196.522C664.289 195.417 665.184 194.522 666.289 194.522L666.289 192.522C664.08 192.522 662.289 194.313 662.289 196.522L664.289 196.522ZM660.289 202C662.498 202 664.289 200.209 664.289 198L662.289 198C662.289 199.105 661.394 200 660.289 200L660.289 202ZM108.723 200.833C108.723 201.477 109.245 202 109.89 202L109.89 200C110.35 200 110.723 200.373 110.723 200.833L108.723 200.833ZM109.555 201.665C109.095 201.665 108.723 201.292 108.723 200.833L110.723 200.833C110.723 200.188 110.2 199.665 109.555 199.665L109.555 201.665ZM102.793 197.7C102.793 199.89 104.568 201.665 106.758 201.665L106.758 199.665C105.673 199.665 104.793 198.786 104.793 197.7L102.793 197.7ZM100.793 194.865C101.898 194.865 102.793 195.761 102.793 196.865L104.793 196.865C104.793 194.656 103.002 192.865 100.793 192.865L100.793 194.865ZM75.4375 190.865C75.4375 193.075 77.2283 194.865 79.4375 194.865L79.4375 192.865C78.3329 192.865 77.4375 191.97 77.4375 190.865L75.4375 190.865ZM73.4375 186.907C74.542 186.907 75.4375 187.802 75.4375 188.907L77.4375 188.907C77.4375 186.698 75.6467 184.907 73.4375 184.907L73.4375 186.907ZM46.2997 188.907C46.2997 187.802 47.1952 186.907 48.2997 186.907L48.2997 184.907C46.0906 184.907 44.2997 186.698 44.2997 188.907L46.2997 188.907ZM48.2997 193.011C47.1952 193.011 46.2997 192.115 46.2997 191.011L44.2997 191.011C44.2997 193.22 46.0906 195.011 48.2997 195.011L48.2997 193.011ZM73.6552 197.011C73.6552 194.802 71.8644 193.011 69.6552 193.011L69.6552 195.011C70.7598 195.011 71.6552 195.906 71.6552 197.011L73.6552 197.011ZM69.6552 202C71.8644 202 73.6552 200.209 73.6552 198L71.6552 198C71.6552 199.105 70.7598 200 69.6552 200L69.6552 202ZM46.4492 200.833C46.4492 201.477 46.9719 202 47.6166 202L47.6166 200C48.0764 200 48.4492 200.373 48.4492 200.833L46.4492 200.833ZM47.2819 201.665C46.822 201.665 46.4492 201.292 46.4492 200.833L48.4492 200.833C48.4492 200.188 47.9266 199.665 47.2819 199.665L47.2819 201.665ZM17.3115 200.833C17.3115 201.292 16.9387 201.665 16.4788 201.665L16.4788 199.665C15.8341 199.665 15.3115 200.188 15.3115 200.833L17.3115 200.833ZM16.1441 202C16.7888 202 17.3115 201.477 17.3115 200.833L15.3115 200.833C15.3115 200.373 15.6843 200 16.1441 200L16.1441 202ZM-1.00001 198C-1.00001 200.209 0.790824 202 2.99999 202L2.99999 200C1.89544 200 0.999991 199.105 0.999991 198L-1.00001 198ZM3 15.093C0.790832 15.093 -1 16.8839 -1 19.093L0.999999 19.093C0.999999 17.9885 1.89545 17.093 3 17.093L3 15.093ZM25.8477 13.093C25.8477 14.1976 24.9522 15.093 23.8477 15.093L23.8477 17.093C26.0568 17.093 27.8477 15.3022 27.8477 13.093L25.8477 13.093ZM23.8477 8.98926C24.9522 8.98926 25.8477 9.88469 25.8477 10.9893L27.8477 10.9893C27.8477 8.78012 26.0568 6.98926 23.8477 6.98926L23.8477 8.98926ZM-1 4.98926C-1 7.19839 0.790832 8.98926 3 8.98926L3 6.98926C1.89545 6.98926 1 6.09383 1 4.98926L-1 4.98926ZM3 -1.00003C0.790833 -1.00003 -1 0.790828 -1 2.99997L1 2.99997C1 1.8954 1.89545 0.999966 3 0.999966L3 -1.00003ZM36.8773 2.18621C36.8773 0.426498 35.4508 -1.00003 33.6911 -1.00003L33.6911 0.999967C34.3462 0.999967 34.8773 1.53107 34.8773 2.18621L36.8773 2.18621ZM38.0635 3.37246C37.4084 3.37246 36.8773 2.84136 36.8773 2.18621L34.8773 2.18621C34.8773 3.94593 36.3038 5.37246 38.0635 5.37246L38.0635 3.37246ZM56.5391 2.18621C56.5391 2.84136 56.0079 3.37246 55.3528 3.37246L55.3528 5.37246C57.1125 5.37246 58.5391 3.94593 58.5391 2.18621L56.5391 2.18621ZM59.7253 -1.00003C57.9656 -1.00003 56.5391 0.426499 56.5391 2.18621L58.5391 2.18621C58.5391 1.53107 59.0702 0.999968 59.7253 0.999969L59.7253 -1.00003ZM740.891 3C740.891 0.79086 739.1 -1 736.891 -1L736.891 0.999998C737.995 0.999998 738.891 1.89543 738.891 3L740.891 3ZM742.891 7.10378C741.786 7.10378 740.891 6.20835 740.891 5.10378L738.891 5.10378C738.891 7.31292 740.681 9.10378 742.891 9.10378L742.891 7.10378ZM770.028 5.10378C770.028 6.20835 769.133 7.10378 768.028 7.10378L768.028 9.10378C770.238 9.10378 772.028 7.31292 772.028 5.10378L770.028 5.10378ZM774.028 -1C771.819 -1 770.028 0.790865 770.028 3L772.028 3C772.028 1.89543 772.924 1 774.028 1L774.028 -1ZM779 198C779 199.105 778.105 200 777 200L777 202C779.209 202 781 200.209 781 198L779 198ZM781 3C781 0.790861 779.209 -1 777 -1L777 1C778.105 1 779 1.89543 779 3L781 3Z" fill="white" mask="url(#path-1-inside-1_238_342)"/>
</g>
</svg>
