<svg width="375" height="358" viewBox="0 0 375 358" fill="none" xmlns="http://www.w3.org/2000/svg">
<g opacity="0.32">
<mask id="path-1-inside-1_238_366" fill="white">
<path fill-rule="evenodd" clip-rule="evenodd" d="M329.17 6.8241C329.17 8.48095 330.514 9.8241 332.17 9.8241H341.281C342.938 9.8241 344.281 8.48095 344.281 6.8241V3C344.281 1.34315 345.624 0 347.281 0H374.172L366.026 2.85771e-05C364.369 3.43891e-05 363.026 1.34318 363.026 3.00003V11.4462C363.026 13.103 364.369 14.4462 366.026 14.4462H371.172C372.829 14.4462 374.172 15.7893 374.172 17.4462V306.808C374.172 306.808 374.172 306.809 374.171 306.809C374.171 306.809 374.17 306.809 374.17 306.81V308.184C374.17 308.944 373.554 309.56 372.795 309.56H362.061C360.404 309.56 359.061 310.903 359.061 312.56V321.006C359.061 322.663 360.404 324.006 362.061 324.006H372.796C373.556 324.006 374.172 323.39 374.172 322.631V321.255C374.172 321.255 374.172 321.255 374.172 321.255C374.172 321.255 374.172 321.255 374.172 321.255V335.7C374.172 335.7 374.172 335.701 374.171 335.701C374.171 335.701 374.17 335.701 374.17 335.702V350.146C374.17 350.146 374.171 350.147 374.171 350.147C374.172 350.147 374.172 350.147 374.172 350.148V354.714C374.172 356.371 372.829 357.714 371.172 357.714H33.2202C31.5633 357.714 30.2202 356.371 30.2202 354.714V346.268C30.2202 344.611 28.877 343.268 27.2202 343.268H18.1094C16.4525 343.268 15.1094 344.611 15.1094 346.268V354.714C15.1094 356.371 13.7662 357.714 12.1094 357.714H3C1.34315 357.714 0 356.371 0 354.714V345.876C0 344.219 1.34315 342.876 3 342.876H9.75925C11.4161 342.876 12.7592 341.533 12.7592 339.876V331.43C12.7592 329.773 11.4161 328.43 9.75925 328.43H3C1.34315 328.43 0 327.087 0 325.43V45.8643C0 44.2074 1.34315 42.8643 3 42.8643H9.18503C10.8419 42.8643 12.185 41.5211 12.185 39.8643V31.4181C12.185 29.7613 10.8419 28.4181 9.18503 28.4181H3C1.34315 28.4181 0 27.075 0 25.4181V15.4438C0 13.787 1.34315 12.4438 3 12.4438H9.95456C11.6114 12.4438 12.9546 11.1007 12.9546 9.44385V3C12.9546 1.34315 14.2977 0 15.9546 0H326.17C327.827 0 329.17 1.34315 329.17 3V6.8241ZM362.061 28.8927C360.404 28.8927 359.061 30.2359 359.061 31.8927V40.3389C359.061 41.9957 360.404 43.3389 362.061 43.3389H371.172C372.829 43.3389 374.172 41.9957 374.172 40.3389V31.8927C374.172 30.2359 372.829 28.8927 371.172 28.8927H362.061ZM359.059 327.006C359.059 325.349 357.715 324.006 356.059 324.006H346.948C345.291 324.006 343.948 325.349 343.948 327.006V335.452C343.948 337.109 345.291 338.452 346.948 338.452H356.059C357.715 338.452 359.059 337.109 359.059 335.452V327.006Z"/>
</mask>
<path fill-rule="evenodd" clip-rule="evenodd" d="M329.17 6.8241C329.17 8.48095 330.514 9.8241 332.17 9.8241H341.281C342.938 9.8241 344.281 8.48095 344.281 6.8241V3C344.281 1.34315 345.624 0 347.281 0H374.172L366.026 2.85771e-05C364.369 3.43891e-05 363.026 1.34318 363.026 3.00003V11.4462C363.026 13.103 364.369 14.4462 366.026 14.4462H371.172C372.829 14.4462 374.172 15.7893 374.172 17.4462V306.808C374.172 306.808 374.172 306.809 374.171 306.809C374.171 306.809 374.17 306.809 374.17 306.81V308.184C374.17 308.944 373.554 309.56 372.795 309.56H362.061C360.404 309.56 359.061 310.903 359.061 312.56V321.006C359.061 322.663 360.404 324.006 362.061 324.006H372.796C373.556 324.006 374.172 323.39 374.172 322.631V321.255C374.172 321.255 374.172 321.255 374.172 321.255C374.172 321.255 374.172 321.255 374.172 321.255V335.7C374.172 335.7 374.172 335.701 374.171 335.701C374.171 335.701 374.17 335.701 374.17 335.702V350.146C374.17 350.146 374.171 350.147 374.171 350.147C374.172 350.147 374.172 350.147 374.172 350.148V354.714C374.172 356.371 372.829 357.714 371.172 357.714H33.2202C31.5633 357.714 30.2202 356.371 30.2202 354.714V346.268C30.2202 344.611 28.877 343.268 27.2202 343.268H18.1094C16.4525 343.268 15.1094 344.611 15.1094 346.268V354.714C15.1094 356.371 13.7662 357.714 12.1094 357.714H3C1.34315 357.714 0 356.371 0 354.714V345.876C0 344.219 1.34315 342.876 3 342.876H9.75925C11.4161 342.876 12.7592 341.533 12.7592 339.876V331.43C12.7592 329.773 11.4161 328.43 9.75925 328.43H3C1.34315 328.43 0 327.087 0 325.43V45.8643C0 44.2074 1.34315 42.8643 3 42.8643H9.18503C10.8419 42.8643 12.185 41.5211 12.185 39.8643V31.4181C12.185 29.7613 10.8419 28.4181 9.18503 28.4181H3C1.34315 28.4181 0 27.075 0 25.4181V15.4438C0 13.787 1.34315 12.4438 3 12.4438H9.95456C11.6114 12.4438 12.9546 11.1007 12.9546 9.44385V3C12.9546 1.34315 14.2977 0 15.9546 0H326.17C327.827 0 329.17 1.34315 329.17 3V6.8241ZM362.061 28.8927C360.404 28.8927 359.061 30.2359 359.061 31.8927V40.3389C359.061 41.9957 360.404 43.3389 362.061 43.3389H371.172C372.829 43.3389 374.172 41.9957 374.172 40.3389V31.8927C374.172 30.2359 372.829 28.8927 371.172 28.8927H362.061ZM359.059 327.006C359.059 325.349 357.715 324.006 356.059 324.006H346.948C345.291 324.006 343.948 325.349 343.948 327.006V335.452C343.948 337.109 345.291 338.452 346.948 338.452H356.059C357.715 338.452 359.059 337.109 359.059 335.452V327.006Z" fill="#000D6B"/>
<path d="M341.281 8.8241H332.17V10.8241H341.281V8.8241ZM343.281 3V6.8241H345.281V3H343.281ZM347.281 1H374.172V-1H347.281V1ZM374.172 -1L366.026 -0.999971V1.00003L374.172 1V-1ZM362.026 3.00003V11.4462H364.026V3.00003H362.026ZM366.026 15.4462H371.172V13.4462H366.026V15.4462ZM373.172 17.4462V306.808H375.172V17.4462H373.172ZM373.17 306.81V308.184H375.17V306.81H373.17ZM372.795 308.56H362.061V310.56H372.795V308.56ZM358.061 312.56V321.006H360.061V312.56H358.061ZM362.061 325.006H372.796V323.006H362.061V325.006ZM375.172 322.631V321.255H373.172V322.631H375.172ZM373.172 321.255V335.7H375.172V321.255H373.172ZM373.17 335.702V350.146H375.17V335.702H373.17ZM373.172 350.148V354.714H375.172V350.148H373.172ZM371.172 356.714H33.2202V358.714H371.172V356.714ZM31.2202 354.714V346.268H29.2202V354.714H31.2202ZM27.2202 342.268H18.1094V344.268H27.2202V342.268ZM14.1094 346.268V354.714H16.1094V346.268H14.1094ZM12.1094 356.714H3V358.714H12.1094V356.714ZM1 354.714V345.876H-1V354.714H1ZM3 343.876H9.75925V341.876H3V343.876ZM13.7592 339.876V331.43H11.7592V339.876H13.7592ZM9.75925 327.43H3V329.43H9.75925V327.43ZM1 325.43V45.8643H-1V325.43H1ZM3 43.8643H9.18503V41.8643H3V43.8643ZM13.185 39.8643V31.4181H11.185V39.8643H13.185ZM9.18503 27.4181H3V29.4181H9.18503V27.4181ZM1 25.4181V15.4438H-1V25.4181H1ZM3 13.4438H9.95456V11.4438H3V13.4438ZM13.9546 9.44385V3H11.9546V9.44385H13.9546ZM15.9546 1H326.17V-1H15.9546V1ZM330.17 6.8241V3H328.17V6.8241H330.17ZM360.061 40.3389V31.8927H358.061V40.3389H360.061ZM371.172 42.3389H362.061V44.3389H371.172V42.3389ZM373.172 31.8927V40.3389H375.172V31.8927H373.172ZM362.061 29.8927H371.172V27.8927H362.061V29.8927ZM346.948 325.006H356.059V323.006H346.948V325.006ZM344.948 335.452V327.006H342.948V335.452H344.948ZM356.059 337.452H346.948V339.452H356.059V337.452ZM358.059 327.006V335.452H360.059V327.006H358.059ZM356.059 339.452C358.268 339.452 360.059 337.661 360.059 335.452H358.059C358.059 336.557 357.163 337.452 356.059 337.452V339.452ZM342.948 335.452C342.948 337.661 344.739 339.452 346.948 339.452V337.452C345.843 337.452 344.948 336.557 344.948 335.452H342.948ZM356.059 325.006C357.163 325.006 358.059 325.901 358.059 327.006H360.059C360.059 324.797 358.268 323.006 356.059 323.006V325.006ZM346.948 323.006C344.739 323.006 342.948 324.797 342.948 327.006H344.948C344.948 325.901 345.843 325.006 346.948 325.006V323.006ZM375.172 31.8927C375.172 29.6836 373.381 27.8927 371.172 27.8927V29.8927C372.276 29.8927 373.172 30.7882 373.172 31.8927H375.172ZM371.172 44.3389C373.381 44.3389 375.172 42.548 375.172 40.3389H373.172C373.172 41.4434 372.276 42.3389 371.172 42.3389V44.3389ZM360.061 31.8927C360.061 30.7882 360.956 29.8927 362.061 29.8927V27.8927C359.852 27.8927 358.061 29.6836 358.061 31.8927H360.061ZM358.061 40.3389C358.061 42.548 359.852 44.3389 362.061 44.3389V42.3389C360.956 42.3389 360.061 41.4434 360.061 40.3389H358.061ZM326.17 1C327.275 1 328.17 1.89543 328.17 3H330.17C330.17 0.790858 328.38 -1 326.17 -1V1ZM13.9546 3C13.9546 1.89543 14.85 1 15.9546 1V-1C13.7454 -1 11.9546 0.790861 11.9546 3H13.9546ZM9.95456 13.4438C12.1637 13.4438 13.9546 11.653 13.9546 9.44385H11.9546C11.9546 10.5484 11.0591 11.4438 9.95456 11.4438V13.4438ZM1 15.4438C1 14.3393 1.89543 13.4438 3 13.4438V11.4438C0.790861 11.4438 -1 13.2347 -1 15.4438H1ZM3 27.4181C1.89543 27.4181 1 26.5227 1 25.4181H-1C-1 27.6273 0.790862 29.4181 3 29.4181V27.4181ZM13.185 31.4181C13.185 29.209 11.3942 27.4181 9.18503 27.4181V29.4181C10.2896 29.4181 11.185 30.3136 11.185 31.4181H13.185ZM9.18503 43.8643C11.3942 43.8643 13.185 42.0734 13.185 39.8643H11.185C11.185 40.9688 10.2896 41.8643 9.18503 41.8643V43.8643ZM1 45.8643C1 44.7597 1.89543 43.8643 3 43.8643V41.8643C0.790863 41.8643 -1 43.6551 -1 45.8643H1ZM3 327.43C1.89543 327.43 1 326.535 1 325.43H-1C-1 327.639 0.790861 329.43 3 329.43V327.43ZM13.7592 331.43C13.7592 329.221 11.9684 327.43 9.75925 327.43V329.43C10.8638 329.43 11.7592 330.326 11.7592 331.43H13.7592ZM9.75925 343.876C11.9684 343.876 13.7592 342.085 13.7592 339.876H11.7592C11.7592 340.981 10.8638 341.876 9.75925 341.876V343.876ZM1 345.876C1 344.772 1.89543 343.876 3 343.876V341.876C0.790861 341.876 -1 343.667 -1 345.876H1ZM3 356.714C1.89543 356.714 1 355.818 1 354.714H-1C-1 356.923 0.790863 358.714 3 358.714V356.714ZM18.1094 342.268C15.9002 342.268 14.1094 344.058 14.1094 346.268H16.1094C16.1094 345.163 17.0048 344.268 18.1094 344.268V342.268ZM31.2202 346.268C31.2202 344.058 29.4293 342.268 27.2202 342.268V344.268C28.3247 344.268 29.2202 345.163 29.2202 346.268H31.2202ZM33.2202 356.714C32.1156 356.714 31.2202 355.818 31.2202 354.714H29.2202C29.2202 356.923 31.011 358.714 33.2202 358.714V356.714ZM373.172 354.714C373.172 355.818 372.277 356.714 371.172 356.714V358.714C373.382 358.714 375.172 356.923 375.172 354.714H373.172ZM374.171 351.147C373.62 351.147 373.172 350.699 373.172 350.148H375.172C375.172 349.595 374.724 349.147 374.171 349.147V351.147ZM373.17 350.146C373.17 350.699 373.619 351.147 374.171 351.147V349.147C374.723 349.147 375.17 349.594 375.17 350.146H373.17ZM374.171 334.701C373.619 334.701 373.17 335.149 373.17 335.702H375.17C375.17 336.253 374.723 336.701 374.171 336.701V334.701ZM373.172 335.7C373.172 335.147 373.62 334.701 374.171 334.701V336.701C374.724 336.701 375.172 336.253 375.172 335.7H373.172ZM374.172 322.255C373.62 322.255 373.172 321.807 373.172 321.255H375.172C375.172 320.703 374.725 320.255 374.172 320.255V322.255ZM375.172 321.255C375.172 321.807 374.725 322.255 374.172 322.255V320.255C373.619 320.255 373.172 320.703 373.172 321.255H375.172ZM372.796 325.006C374.108 325.006 375.172 323.943 375.172 322.631H373.172C373.172 322.838 373.004 323.006 372.796 323.006V325.006ZM362.061 308.56C359.852 308.56 358.061 310.351 358.061 312.56H360.061C360.061 311.456 360.956 310.56 362.061 310.56V308.56ZM373.17 308.184C373.17 308.392 373.002 308.56 372.795 308.56V310.56C374.107 310.56 375.17 309.497 375.17 308.184H373.17ZM374.171 305.809C373.619 305.809 373.17 306.257 373.17 306.81H375.17C375.17 307.361 374.723 307.809 374.171 307.809V305.809ZM373.172 306.808C373.172 306.261 373.615 305.809 374.171 305.809V307.809C374.729 307.809 375.172 307.356 375.172 306.808H373.172ZM371.172 15.4462C372.277 15.4462 373.172 16.3416 373.172 17.4462H375.172C375.172 15.237 373.382 13.4462 371.172 13.4462V15.4462ZM366.026 -0.999971C363.817 -0.999964 362.026 0.790895 362.026 3.00003H364.026C364.026 1.89546 364.921 1.00003 366.026 1.00003V-0.999971ZM345.281 3C345.281 1.89543 346.177 1 347.281 1V-1C345.072 -1 343.281 0.790861 343.281 3H345.281ZM332.17 8.8241C331.066 8.8241 330.17 7.92867 330.17 6.8241H328.17C328.17 9.03324 329.961 10.8241 332.17 10.8241V8.8241ZM362.026 11.4462C362.026 13.6553 363.817 15.4462 366.026 15.4462V13.4462C364.921 13.4462 364.026 12.5507 364.026 11.4462H362.026ZM358.061 321.006C358.061 323.216 359.852 325.006 362.061 325.006V323.006C360.956 323.006 360.061 322.111 360.061 321.006H358.061ZM14.1094 354.714C14.1094 355.818 13.2139 356.714 12.1094 356.714V358.714C14.3185 358.714 16.1094 356.923 16.1094 354.714H14.1094ZM341.281 10.8241C343.49 10.8241 345.281 9.03324 345.281 6.8241H343.281C343.281 7.92867 342.386 8.8241 341.281 8.8241V10.8241Z" fill="white" mask="url(#path-1-inside-1_238_366)"/>
</g>
</svg>
