<svg width="375" height="358" viewBox="0 0 375 358" fill="none" xmlns="http://www.w3.org/2000/svg">
<g opacity="0.32">
<mask id="path-1-inside-1_238_232" fill="white">
<path fill-rule="evenodd" clip-rule="evenodd" d="M330.241 8.91544C330.241 10.5723 331.584 11.9154 333.241 11.9154H342.352C344.008 11.9154 345.352 10.5723 345.352 8.91544V3C345.352 1.34315 346.695 0 348.352 0H358.502C360.159 0 361.502 1.34315 361.502 3V9.82666C361.502 11.4835 362.846 12.8267 364.502 12.8267H371.344C373.001 12.8267 374.344 14.1698 374.344 15.8267V25.5597C374.344 27.2166 373.001 28.5597 371.344 28.5597H365.975C364.318 28.5597 362.975 29.9029 362.975 31.5597V40.0059C362.975 41.6627 364.318 43.0059 365.975 43.0059H371.344C373.001 43.0059 374.344 44.349 374.344 46.0059V306.56C374.344 308.217 373.001 309.56 371.344 309.56H362.237C360.58 309.56 359.237 310.903 359.237 312.56V321.006C359.237 322.663 360.58 324.006 362.237 324.006H371.344C373.001 324.006 374.344 325.35 374.344 327.006V354.714C374.344 356.371 373.001 357.714 371.344 357.714H3.17186C1.51501 357.714 0.171875 356.371 0.171875 354.714V346.268C0.171875 344.611 1.51502 343.268 3.17187 343.268H12.2812C13.938 343.268 15.2812 344.611 15.2812 346.268V354.714C15.2812 356.37 16.6243 357.714 18.2812 357.714H27.392C29.0488 357.714 30.392 356.37 30.392 354.714V346.267C30.392 344.611 29.0488 343.267 27.392 343.267H18.2826C16.6258 343.267 15.2826 341.924 15.2826 340.267V331.822C15.2826 330.165 13.9395 328.822 12.2826 328.822H3.17187C1.51502 328.822 0.171875 327.479 0.171875 325.822V46.3389C0.171875 44.6821 1.51502 43.3389 3.17188 43.3389H12.2826C13.9395 43.3389 15.2826 41.9958 15.2826 40.3389V31.8928C15.2826 30.2359 13.9395 28.8928 12.2826 28.8928H3.17187C1.51502 28.8928 0.171875 27.5496 0.171875 25.8928V17.4467C0.171875 15.7898 1.51502 14.4467 3.17188 14.4467H12.2826C13.9395 14.4467 15.2826 13.1035 15.2826 11.4467V3.00056C15.2826 1.3437 13.9395 0.000559807 12.2826 0.000559807H0.172155C0.172001 0.000559807 0.171875 0.00043449 0.171875 0.000279903C0.171875 0.000125317 0.172 0 0.172155 0H327.241C328.898 0 330.241 1.34315 330.241 3V8.91544ZM359.234 327.006C359.234 325.349 357.891 324.006 356.234 324.006H347.124C345.467 324.006 344.124 325.349 344.124 327.006V335.452C344.124 337.109 345.467 338.452 347.124 338.452H356.234C357.891 338.452 359.234 337.109 359.234 335.452V327.006Z"/>
</mask>
<path fill-rule="evenodd" clip-rule="evenodd" d="M330.241 8.91544C330.241 10.5723 331.584 11.9154 333.241 11.9154H342.352C344.008 11.9154 345.352 10.5723 345.352 8.91544V3C345.352 1.34315 346.695 0 348.352 0H358.502C360.159 0 361.502 1.34315 361.502 3V9.82666C361.502 11.4835 362.846 12.8267 364.502 12.8267H371.344C373.001 12.8267 374.344 14.1698 374.344 15.8267V25.5597C374.344 27.2166 373.001 28.5597 371.344 28.5597H365.975C364.318 28.5597 362.975 29.9029 362.975 31.5597V40.0059C362.975 41.6627 364.318 43.0059 365.975 43.0059H371.344C373.001 43.0059 374.344 44.349 374.344 46.0059V306.56C374.344 308.217 373.001 309.56 371.344 309.56H362.237C360.58 309.56 359.237 310.903 359.237 312.56V321.006C359.237 322.663 360.58 324.006 362.237 324.006H371.344C373.001 324.006 374.344 325.35 374.344 327.006V354.714C374.344 356.371 373.001 357.714 371.344 357.714H3.17186C1.51501 357.714 0.171875 356.371 0.171875 354.714V346.268C0.171875 344.611 1.51502 343.268 3.17187 343.268H12.2812C13.938 343.268 15.2812 344.611 15.2812 346.268V354.714C15.2812 356.37 16.6243 357.714 18.2812 357.714H27.392C29.0488 357.714 30.392 356.37 30.392 354.714V346.267C30.392 344.611 29.0488 343.267 27.392 343.267H18.2826C16.6258 343.267 15.2826 341.924 15.2826 340.267V331.822C15.2826 330.165 13.9395 328.822 12.2826 328.822H3.17187C1.51502 328.822 0.171875 327.479 0.171875 325.822V46.3389C0.171875 44.6821 1.51502 43.3389 3.17188 43.3389H12.2826C13.9395 43.3389 15.2826 41.9958 15.2826 40.3389V31.8928C15.2826 30.2359 13.9395 28.8928 12.2826 28.8928H3.17187C1.51502 28.8928 0.171875 27.5496 0.171875 25.8928V17.4467C0.171875 15.7898 1.51502 14.4467 3.17188 14.4467H12.2826C13.9395 14.4467 15.2826 13.1035 15.2826 11.4467V3.00056C15.2826 1.3437 13.9395 0.000559807 12.2826 0.000559807H0.172155C0.172001 0.000559807 0.171875 0.00043449 0.171875 0.000279903C0.171875 0.000125317 0.172 0 0.172155 0H327.241C328.898 0 330.241 1.34315 330.241 3V8.91544ZM359.234 327.006C359.234 325.349 357.891 324.006 356.234 324.006H347.124C345.467 324.006 344.124 325.349 344.124 327.006V335.452C344.124 337.109 345.467 338.452 347.124 338.452H356.234C357.891 338.452 359.234 337.109 359.234 335.452V327.006Z" fill="#000D6B"/>
<path d="M342.352 10.9154H333.241V12.9154H342.352V10.9154ZM344.352 3V8.91544H346.352V3H344.352ZM348.352 1H358.502V-1H348.352V1ZM360.502 3V9.82666H362.502V3H360.502ZM364.502 13.8267H371.344V11.8267H364.502V13.8267ZM373.344 15.8267V25.5597H375.344V15.8267H373.344ZM371.344 27.5597H365.975V29.5597H371.344V27.5597ZM361.975 31.5597V40.0059H363.975V31.5597H361.975ZM365.975 44.0059H371.344V42.0059H365.975V44.0059ZM373.344 46.0059V306.56H375.344V46.0059H373.344ZM371.344 308.56H362.237V310.56H371.344V308.56ZM358.237 312.56V321.006H360.237V312.56H358.237ZM362.237 325.006H371.344V323.006H362.237V325.006ZM373.344 327.006V354.714H375.344V327.006H373.344ZM371.344 356.714H3.17186V358.714H371.344V356.714ZM1.17188 354.714V346.268H-0.828125V354.714H1.17188ZM3.17187 344.268H12.2812V342.268H3.17187V344.268ZM14.2812 346.268V354.714H16.2812V346.268H14.2812ZM18.2812 358.714H27.392V356.714H18.2812V358.714ZM31.392 354.714V346.267H29.392V354.714H31.392ZM27.392 342.267H18.2826V344.267H27.392V342.267ZM16.2826 340.267V331.822H14.2826V340.267H16.2826ZM12.2826 327.822H3.17187V329.822H12.2826V327.822ZM1.17188 325.822V46.3389H-0.828125V325.822H1.17188ZM3.17188 44.3389H12.2826V42.3389H3.17188V44.3389ZM16.2826 40.3389V31.8928H14.2826V40.3389H16.2826ZM12.2826 27.8928H3.17187V29.8928H12.2826V27.8928ZM1.17188 25.8928V17.4467H-0.828125V25.8928H1.17188ZM3.17188 15.4467H12.2826V13.4467H3.17188V15.4467ZM16.2826 11.4467V3.00056H14.2826V11.4467H16.2826ZM12.2826 -0.99944H0.172155V1.00056H12.2826V-0.99944ZM0.172155 1H327.241V-1H0.172155V1ZM331.241 8.91544V3H329.241V8.91544H331.241ZM347.124 325.006H356.234V323.006H347.124V325.006ZM345.124 335.452V327.006H343.124V335.452H345.124ZM356.234 337.452H347.124V339.452H356.234V337.452ZM358.234 327.006V335.452H360.234V327.006H358.234ZM356.234 339.452C358.444 339.452 360.234 337.661 360.234 335.452H358.234C358.234 336.557 357.339 337.452 356.234 337.452V339.452ZM343.124 335.452C343.124 337.661 344.914 339.452 347.124 339.452V337.452C346.019 337.452 345.124 336.557 345.124 335.452H343.124ZM356.234 325.006C357.339 325.006 358.234 325.901 358.234 327.006H360.234C360.234 324.797 358.444 323.006 356.234 323.006V325.006ZM347.124 323.006C344.914 323.006 343.124 324.797 343.124 327.006H345.124C345.124 325.901 346.019 325.006 347.124 325.006V323.006ZM327.241 1C328.345 1 329.241 1.89543 329.241 3H331.241C331.241 0.790865 329.45 -1 327.241 -1V1ZM1.17188 0.000279903C1.17188 0.55241 0.724285 1 0.172155 1V-1C-0.380284 -1 -0.828125 -0.552159 -0.828125 0.000279903H1.17188ZM0.172155 -0.99944C0.723332 -0.99944 1.17188 -0.552803 1.17188 0.000279903H-0.828125C-0.828125 0.553672 -0.379331 1.00056 0.172155 1.00056V-0.99944ZM16.2826 3.00056C16.2826 0.791419 14.4917 -0.99944 12.2826 -0.99944V1.00056C13.3872 1.00056 14.2826 1.89599 14.2826 3.00056H16.2826ZM12.2826 15.4467C14.4918 15.4467 16.2826 13.6558 16.2826 11.4467H14.2826C14.2826 12.5513 13.3872 13.4467 12.2826 13.4467V15.4467ZM1.17188 17.4467C1.17188 16.3421 2.06731 15.4467 3.17188 15.4467V13.4467C0.962736 13.4467 -0.828125 15.2375 -0.828125 17.4467H1.17188ZM3.17187 27.8928C2.0673 27.8928 1.17188 26.9974 1.17188 25.8928H-0.828125C-0.828125 28.1019 0.962733 29.8928 3.17187 29.8928V27.8928ZM16.2826 31.8928C16.2826 29.6836 14.4917 27.8928 12.2826 27.8928V29.8928C13.3872 29.8928 14.2826 30.7882 14.2826 31.8928H16.2826ZM12.2826 44.3389C14.4918 44.3389 16.2826 42.5481 16.2826 40.3389H14.2826C14.2826 41.4435 13.3872 42.3389 12.2826 42.3389V44.3389ZM1.17188 46.3389C1.17188 45.2343 2.0673 44.3389 3.17188 44.3389V42.3389C0.96274 42.3389 -0.828125 44.1298 -0.828125 46.3389H1.17188ZM3.17187 327.822C2.0673 327.822 1.17188 326.926 1.17188 325.822H-0.828125C-0.828125 328.031 0.962733 329.822 3.17187 329.822V327.822ZM16.2826 331.822C16.2826 329.613 14.4917 327.822 12.2826 327.822V329.822C13.3872 329.822 14.2826 330.717 14.2826 331.822H16.2826ZM18.2826 342.267C17.178 342.267 16.2826 341.372 16.2826 340.267H14.2826C14.2826 342.477 16.0735 344.267 18.2826 344.267V342.267ZM31.392 346.267C31.392 344.058 29.6011 342.267 27.392 342.267V344.267C28.4966 344.267 29.392 345.163 29.392 346.267H31.392ZM27.392 358.714C29.6011 358.714 31.392 356.923 31.392 354.714H29.392C29.392 355.818 28.4966 356.714 27.392 356.714V358.714ZM14.2812 354.714C14.2812 356.923 16.072 358.714 18.2812 358.714V356.714C17.1766 356.714 16.2812 355.818 16.2812 354.714H14.2812ZM12.2812 344.268C13.3857 344.268 14.2812 345.163 14.2812 346.268H16.2812C16.2812 344.059 14.4903 342.268 12.2812 342.268V344.268ZM1.17188 346.268C1.17188 345.163 2.06731 344.268 3.17187 344.268V342.268C0.962736 342.268 -0.828125 344.059 -0.828125 346.268H1.17188ZM3.17186 356.714C2.0673 356.714 1.17188 355.818 1.17188 354.714H-0.828125C-0.828125 356.923 0.962718 358.714 3.17186 358.714V356.714ZM373.344 354.714C373.344 355.818 372.449 356.714 371.344 356.714V358.714C373.553 358.714 375.344 356.923 375.344 354.714H373.344ZM371.344 325.006C372.449 325.006 373.344 325.902 373.344 327.006H375.344C375.344 324.797 373.553 323.006 371.344 323.006V325.006ZM358.237 321.006C358.237 323.216 360.028 325.006 362.237 325.006V323.006C361.132 323.006 360.237 322.111 360.237 321.006H358.237ZM362.237 308.56C360.028 308.56 358.237 310.351 358.237 312.56H360.237C360.237 311.456 361.132 310.56 362.237 310.56V308.56ZM373.344 306.56C373.344 307.665 372.449 308.56 371.344 308.56V310.56C373.553 310.56 375.344 308.769 375.344 306.56H373.344ZM371.344 44.0059C372.449 44.0059 373.344 44.9013 373.344 46.0059H375.344C375.344 43.7967 373.553 42.0059 371.344 42.0059V44.0059ZM361.975 40.0059C361.975 42.215 363.766 44.0059 365.975 44.0059V42.0059C364.871 42.0059 363.975 41.1104 363.975 40.0059H361.975ZM365.975 27.5597C363.766 27.5597 361.975 29.3506 361.975 31.5597H363.975C363.975 30.4552 364.871 29.5597 365.975 29.5597V27.5597ZM373.344 25.5597C373.344 26.6643 372.449 27.5597 371.344 27.5597V29.5597C373.553 29.5597 375.344 27.7689 375.344 25.5597H373.344ZM371.344 13.8267C372.449 13.8267 373.344 14.7221 373.344 15.8267H375.344C375.344 13.6175 373.553 11.8267 371.344 11.8267V13.8267ZM360.502 9.82666C360.502 12.0358 362.293 13.8267 364.502 13.8267V11.8267C363.398 11.8267 362.502 10.9312 362.502 9.82666H360.502ZM358.502 1C359.607 1 360.502 1.89543 360.502 3H362.502C362.502 0.790861 360.712 -1 358.502 -1V1ZM346.352 3C346.352 1.89543 347.247 1 348.352 1V-1C346.142 -1 344.352 0.790861 344.352 3H346.352ZM333.241 10.9154C332.136 10.9154 331.241 10.02 331.241 8.91544H329.241C329.241 11.1246 331.032 12.9154 333.241 12.9154V10.9154ZM342.352 12.9154C344.561 12.9154 346.352 11.1246 346.352 8.91544H344.352C344.352 10.02 343.456 10.9154 342.352 10.9154V12.9154Z" fill="white" mask="url(#path-1-inside-1_238_232)"/>
</g>
</svg>
