<svg width="330" height="160" viewBox="0 0 330 160" fill="none" xmlns="http://www.w3.org/2000/svg">
<mask id="path-1-inside-1_127_3035" fill="white">
<path fill-rule="evenodd" clip-rule="evenodd" d="M290.31 2.19719C290.31 3.41066 291.293 4.39437 292.507 4.39437H301.44C302.653 4.39437 303.637 3.41066 303.637 2.19719C303.637 0.983715 304.62 0 305.834 0H317.366C318.914 0 320.169 1.25493 320.169 2.80297C320.169 4.35101 321.424 5.60594 322.972 5.60594H327C328.657 5.60594 330 6.94908 330 8.60594V9.92333C330 11.5802 328.657 12.9233 327 12.9233H319.673C318.016 12.9233 316.673 14.2665 316.673 15.9233V16.3849C316.673 18.0417 318.016 19.3849 319.673 19.3849H327C328.657 19.3849 330 20.728 330 22.3849V137.23C330 137.23 329.999 137.231 329.999 137.231C329.998 137.231 329.997 137.232 329.997 137.232V137.846C329.997 138.186 329.722 138.462 329.382 138.462H319.673C318.016 138.462 316.673 139.805 316.673 141.462V141.923C316.673 143.58 318.016 144.923 319.673 144.923H327.385C328.829 144.923 330 146.094 330 147.539V150.153C330 150.153 329.999 150.154 329.999 150.154C329.998 150.154 329.997 150.155 329.997 150.155V156.614C329.997 156.615 329.998 156.615 329.999 156.615C329.999 156.615 330 156.616 330 156.617V158.308C330 159.242 329.242 160 328.308 160H29.1512C27.7704 160 26.6511 158.881 26.6511 157.5C26.6511 156.119 25.5318 155 24.1511 155H15.8242C14.4435 155 13.3242 156.119 13.3242 157.5C13.3242 158.881 12.2049 160 10.8242 160H3C1.34315 160 0 158.657 0 157V156.363C0 154.707 1.34315 153.363 3 153.363H8.25271C9.90956 153.363 11.2527 152.02 11.2527 150.363V149.902C11.2527 148.245 9.90956 146.902 8.2527 146.902H3C1.34314 146.902 0 145.559 0 143.902V22.1726C0 20.5157 1.34315 19.1726 3 19.1726H7.74489C9.40175 19.1726 10.7449 17.8294 10.7449 16.1726V15.711C10.7449 14.0542 9.40175 12.711 7.74489 12.711H3C1.34314 12.711 0 11.3679 0 9.71105V8.56572C0 6.90887 1.34315 5.56573 3 5.56573H8.64172C10.1787 5.56573 11.4246 4.3198 11.4246 2.78286C11.4246 1.24593 12.6705 0 14.2074 0H288.113C289.326 0 290.31 0.983715 290.31 2.19719ZM316.668 147.923C316.668 146.266 315.325 144.923 313.668 144.923H306.341C304.684 144.923 303.341 146.266 303.341 147.923V148.384C303.341 150.041 304.684 151.384 306.341 151.384H313.668C315.325 151.384 316.668 150.041 316.668 148.384V147.923Z"/>
</mask>
<path d="M301.44 3.39437H292.507V5.39437H301.44V3.39437ZM305.834 1H317.366V-1H305.834V1ZM322.972 6.60594H327V4.60594H322.972V6.60594ZM329 8.60594V9.92333H331V8.60594H329ZM327 11.9233H319.673V13.9233H327V11.9233ZM315.673 15.9233V16.3849H317.673V15.9233H315.673ZM319.673 20.3849H327V18.3849H319.673V20.3849ZM329 22.3849V137.23H331V22.3849H329ZM328.997 137.232V137.846H330.997V137.232H328.997ZM329.382 137.462H319.673V139.462H329.382V137.462ZM315.673 141.462V141.923H317.673V141.462H315.673ZM319.673 145.923H327.385V143.923H319.673V145.923ZM329 147.539V150.153H331V147.539H329ZM328.997 150.155V156.614H330.997V150.155H328.997ZM329 156.617V158.308H331V156.617H329ZM328.308 159H29.1512V161H328.308V159ZM24.1511 154H15.8242V156H24.1511V154ZM10.8242 159H3V161H10.8242V159ZM1 157V156.363H-1V157H1ZM3 154.363H8.25271V152.363H3V154.363ZM12.2527 150.363V149.902H10.2527V150.363H12.2527ZM8.2527 145.902H3V147.902H8.2527V145.902ZM1 143.902V22.1726H-1V143.902H1ZM3 20.1726H7.74489V18.1726H3V20.1726ZM11.7449 16.1726V15.711H9.74489V16.1726H11.7449ZM7.74489 11.711H3V13.711H7.74489V11.711ZM1 9.71105V8.56572H-1V9.71105H1ZM3 6.56573H8.64172V4.56573H3V6.56573ZM14.2074 1H288.113V-1H14.2074V1ZM306.341 145.923H313.668V143.923H306.341V145.923ZM304.341 148.384V147.923H302.341V148.384H304.341ZM313.668 150.384H306.341V152.384H313.668V150.384ZM315.668 147.923V148.384H317.668V147.923H315.668ZM313.668 152.384C315.877 152.384 317.668 150.594 317.668 148.384H315.668C315.668 149.489 314.773 150.384 313.668 150.384V152.384ZM302.341 148.384C302.341 150.594 304.132 152.384 306.341 152.384V150.384C305.236 150.384 304.341 149.489 304.341 148.384H302.341ZM313.668 145.923C314.773 145.923 315.668 146.818 315.668 147.923H317.668C317.668 145.714 315.877 143.923 313.668 143.923V145.923ZM306.341 143.923C304.132 143.923 302.341 145.714 302.341 147.923H304.341C304.341 146.818 305.236 145.923 306.341 145.923V143.923ZM288.113 1C288.774 1 289.31 1.53599 289.31 2.19719H291.31C291.31 0.431437 289.878 -1 288.113 -1V1ZM12.4246 2.78286C12.4246 1.79822 13.2228 1 14.2074 1V-1C12.1182 -1 10.4246 0.693645 10.4246 2.78286H12.4246ZM8.64172 6.56573C10.7309 6.56573 12.4246 4.87208 12.4246 2.78286H10.4246C10.4246 3.76751 9.62637 4.56573 8.64172 4.56573V6.56573ZM1 8.56572C1 7.46116 1.89543 6.56573 3 6.56573V4.56573C0.790862 4.56573 -1 6.35658 -1 8.56572H1ZM3 11.711C1.89543 11.711 1 10.8156 1 9.71105H-1C-1 11.9202 0.790857 13.711 3 13.711V11.711ZM11.7449 15.711C11.7449 13.5019 9.95403 11.711 7.74489 11.711V13.711C8.84946 13.711 9.74489 14.6065 9.74489 15.711H11.7449ZM7.74489 20.1726C9.95403 20.1726 11.7449 18.3817 11.7449 16.1726H9.74489C9.74489 17.2772 8.84946 18.1726 7.74489 18.1726V20.1726ZM1 22.1726C1 21.068 1.89543 20.1726 3 20.1726V18.1726C0.790858 18.1726 -1 19.9635 -1 22.1726H1ZM3 145.902C1.89543 145.902 1 145.007 1 143.902H-1C-1 146.111 0.790856 147.902 3 147.902V145.902ZM12.2527 149.902C12.2527 147.693 10.4618 145.902 8.2527 145.902V147.902C9.35727 147.902 10.2527 148.797 10.2527 149.902H12.2527ZM8.25271 154.363C10.4618 154.363 12.2527 152.573 12.2527 150.363H10.2527C10.2527 151.468 9.35728 152.363 8.25271 152.363V154.363ZM1 156.363C1 155.259 1.89543 154.363 3 154.363V152.363C0.790861 152.363 -1 154.154 -1 156.363H1ZM3 159C1.89543 159 1 158.105 1 157H-1C-1 159.209 0.790861 161 3 161V159ZM12.3242 157.5C12.3242 158.328 11.6526 159 10.8242 159V161C12.7572 161 14.3242 159.433 14.3242 157.5H12.3242ZM15.8242 154C13.8912 154 12.3242 155.567 12.3242 157.5H14.3242C14.3242 156.672 14.9958 156 15.8242 156V154ZM27.6511 157.5C27.6511 155.567 26.0841 154 24.1511 154V156C24.9796 156 25.6511 156.672 25.6511 157.5H27.6511ZM29.1512 159C28.3227 159 27.6511 158.328 27.6511 157.5H25.6511C25.6511 159.433 27.2182 161 29.1512 161V159ZM329 158.308C329 158.69 328.69 159 328.308 159V161C329.795 161 331 159.795 331 158.308H329ZM329.999 157.615C329.447 157.615 329 157.168 329 156.617H331C331 156.064 330.552 155.615 329.999 155.615V157.615ZM328.997 156.614C328.997 157.167 329.446 157.615 329.999 157.615V155.615C330.55 155.615 330.997 156.063 330.997 156.614H328.997ZM329.999 149.154C329.446 149.154 328.997 149.602 328.997 150.155H330.997C330.997 150.707 330.55 151.154 329.999 151.154V149.154ZM329 150.153C329 149.601 329.447 149.154 329.999 149.154V151.154C330.552 151.154 331 150.706 331 150.153H329ZM327.385 145.923C328.277 145.923 329 146.646 329 147.539H331C331 145.542 329.381 143.923 327.385 143.923V145.923ZM315.673 141.923C315.673 144.132 317.464 145.923 319.673 145.923V143.923C318.568 143.923 317.673 143.028 317.673 141.923H315.673ZM319.673 137.462C317.464 137.462 315.673 139.253 315.673 141.462H317.673C317.673 140.357 318.568 139.462 319.673 139.462V137.462ZM328.997 137.846C328.997 137.634 329.169 137.462 329.382 137.462V139.462C330.274 139.462 330.997 138.739 330.997 137.846H328.997ZM329.999 136.231C329.446 136.231 328.997 136.679 328.997 137.232H330.997C330.997 137.784 330.55 138.231 329.999 138.231V136.231ZM329 137.23C329 136.676 329.449 136.231 329.999 136.231V138.231C330.549 138.231 331 137.785 331 137.23H329ZM327 20.3849C328.105 20.3849 329 21.2803 329 22.3849H331C331 20.1757 329.209 18.3849 327 18.3849V20.3849ZM315.673 16.3849C315.673 18.594 317.464 20.3849 319.673 20.3849V18.3849C318.569 18.3849 317.673 17.4894 317.673 16.3849H315.673ZM319.673 11.9233C317.464 11.9233 315.673 13.7142 315.673 15.9233H317.673C317.673 14.8188 318.568 13.9233 319.673 13.9233V11.9233ZM329 9.92333C329 11.0279 328.105 11.9233 327 11.9233V13.9233C329.209 13.9233 331 12.1325 331 9.92333H329ZM327 6.60594C328.105 6.60594 329 7.50137 329 8.60594H331C331 6.3968 329.209 4.60594 327 4.60594V6.60594ZM319.169 2.80297C319.169 4.90329 320.872 6.60594 322.972 6.60594V4.60594C321.976 4.60594 321.169 3.79872 321.169 2.80297H319.169ZM317.366 1C318.362 1 319.169 1.80722 319.169 2.80297H321.169C321.169 0.702647 319.467 -1 317.366 -1V1ZM304.637 2.19719C304.637 1.536 305.173 1 305.834 1V-1C304.068 -1 302.637 0.43143 302.637 2.19719H304.637ZM292.507 3.39437C291.846 3.39437 291.31 2.85838 291.31 2.19719H289.31C289.31 3.96294 290.741 5.39437 292.507 5.39437V3.39437ZM301.44 5.39437C303.205 5.39437 304.637 3.96294 304.637 2.19719H302.637C302.637 2.85838 302.101 3.39437 301.44 3.39437V5.39437Z" fill="white" mask="url(#path-1-inside-1_127_3035)"/>
</svg>
